# xmcd
# 
# Track frame offsets:
#     150
#     14339
#     30321
#     55204
#     70887
#     84307
#     96456
#     116027
#     128151
#     142620
#     160679
#     176789
#     208339
# 
# Disc length: 3047
# 
# Revision: 1
# Processed by: cddbd v1.5.2PL0 Copyright (c) Steve Scherf et al.
# Submitted via: fre:ac v1.0.27
# 
DISCID=ad0be50d
DTITLE=Hadden Sayers Band - Hard Dollar
DYEAR=2011
DGENRE=Country-influenced Rock
TTITLE0=Take Me Back to Texas
TTITLE1=All I Want is You
TTITLE2=Back to the Blues
TTITLE3=Insideout Boogie
TTITLE4=Lap of Luxury
TTITLE5=Flat Black Automobile
TTITLE6=Sweet Texas Girls
TTITLE7=Crush on You
TTITLE8=Ain't Comin' 'Round No More
TTITLE9=Hippie Getaway
TTITLE10=Burnin' Up
TTITLE11=Room 155
TTITLE12=Money Shot
EXTD=
EXTT0=
EXTT1=
EXTT2=featuring Ruthie Foster
EXTT3=
EXTT4=
EXTT5=
EXTT6=
EXTT7=
EXTT8=
EXTT9=
EXTT10=
EXTT11=
EXTT12=
PLAYORDER=
